<svg width="34" height="34" viewBox="0 0 34 34" fill="none" xmlns="http://www.w3.org/2000/svg">
<path d="M0 3.2C0 2.0799 0 1.51984 0.217987 1.09202C0.409734 0.715695 0.715695 0.409734 1.09202 0.217987C1.51984 0 2.0799 0 3.2 0H30.8C31.9201 0 32.4802 0 32.908 0.217987C33.2843 0.409734 33.5903 0.715695 33.782 1.09202C34 1.51984 34 2.0799 34 3.2V30.8C34 31.9201 34 32.4802 33.782 32.908C33.5903 33.2843 33.2843 33.5903 32.908 33.782C32.4802 34 31.9201 34 30.8 34H3.2C2.0799 34 1.51984 34 1.09202 33.782C0.715695 33.5903 0.409734 33.2843 0.217987 32.908C0 32.4802 0 31.9201 0 30.8V3.2Z" fill="#3971FF"/>
<path d="M13 13L13 12C13 9.79086 14.7909 8 17 8V8C19.2091 8 21 9.79086 21 12L21 13" stroke="white" stroke-width="2" stroke-linecap="round"/>
<path d="M20 19V17" stroke="white" stroke-width="2" stroke-linecap="round"/>
<path d="M14 19V17" stroke="white" stroke-width="2" stroke-linecap="round"/>
<path d="M9 17C9 15.1144 9 14.1716 9.58579 13.5858C10.1716 13 11.1144 13 13 13H21C22.8856 13 23.8284 13 24.4142 13.5858C25 14.1716 25 15.1144 25 17V18C25 21.7712 25 23.6569 23.8284 24.8284C22.6569 26 20.7712 26 17 26V26C13.2288 26 11.3431 26 10.1716 24.8284C9 23.6569 9 21.7712 9 18V17Z" stroke="white" stroke-width="2"/>
</svg>
